<?xml version="1.0" encoding="utf-8"?>
<!-- Generator: Adobe Illustrator 16.0.0, SVG Export Plug-In . SVG Version: 6.00 Build 0)  -->
<!DOCTYPE svg PUBLIC "-//W3C//DTD SVG 1.1//EN" "http://www.w3.org/Graphics/SVG/1.1/DTD/svg11.dtd">
<svg version="1.1" id="Layer_1" xmlns="http://www.w3.org/2000/svg" xmlns:xlink="http://www.w3.org/1999/xlink" x="0px" y="0px"
	 width="32.427px" height="29.761px" viewBox="0 0 32.427 29.761" enable-background="new 0 0 32.427 29.761" xml:space="preserve">
<g>
	<path fill="#8AC540" d="M4.78,23.545c0,0.761,0.617,1.378,1.38,1.378h14.575v-2.757H6.16C5.397,22.166,4.78,22.783,4.78,23.545z
		 M6.252,17.292c-1.67,0-3.239,0.651-4.421,1.832C0.65,20.305,0,21.874,0,23.545c0,3.445,2.805,6.251,6.252,6.251h20.681v-2.757
		H6.252c-1.927,0-3.494-1.568-3.494-3.494c0-0.934,0.363-1.811,1.023-2.471c0.66-0.66,1.538-1.023,2.471-1.023h12.352v-2.758H6.252z
		"/>
	<path fill="#8AC540" d="M17.009,4.976c-0.661-0.381-1.503-0.155-1.886,0.505L7.67,18.473l2.387,1.38l7.456-12.994
		C17.893,6.2,17.667,5.356,17.009,4.976z M21.686,9.376c0.834-1.446,1.057-3.131,0.625-4.744c-0.432-1.613-1.467-2.961-2.912-3.795
		c-2.985-1.725-6.817-0.697-8.54,2.288l-10.34,17.91l2.389,1.379l10.34-17.91c0.964-1.667,3.104-2.242,4.773-1.278
		c0.807,0.466,1.387,1.219,1.627,2.121c0.241,0.902,0.118,1.843-0.35,2.65l-6.008,10.448l2.386,1.378L21.686,9.376z"/>
	<path fill="#8AC540" d="M26.913,24.782c0.659-0.381,0.885-1.224,0.505-1.883l-7.123-12.394l-2.388,1.379l7.123,12.394
		C25.41,24.937,26.252,25.163,26.913,24.782z M20.763,26.633c0.835,1.446,2.183,2.48,3.795,2.912
		c1.614,0.434,3.299,0.211,4.745-0.623c2.984-1.724,4.012-5.555,2.288-8.54L21.25,2.472l-2.388,1.378l10.341,17.91
		c0.964,1.668,0.389,3.81-1.279,4.773c-0.81,0.465-1.75,0.59-2.651,0.348c-0.902-0.24-1.654-0.819-2.121-1.627l-5.743-9.982
		l-2.389,1.379L20.763,26.633z"/>
</g>
</svg>
